<svg width="129.000000" height="117.098801" viewBox="0 0 129 117.099" fill="none" xmlns="http://www.w3.org/2000/svg" xmlns:xlink="http://www.w3.org/1999/xlink">
	<desc>
			Created with Pixso.
	</desc>
	<defs/>
	<path id="Bright Smile" d="M79.47 91.66C80.13 91.88 80.85 91.98 81.62 91.98C82.27 91.98 82.88 91.89 83.44 91.71C84.02 91.53 84.52 91.27 84.94 90.94C85.37 90.59 85.7 90.16 85.93 89.66C86.17 89.15 86.29 88.57 86.29 87.92C86.29 86.79 85.93 85.88 85.19 85.18Q84.11 84.12 81.85 83.79C81.01 83.67 80.34 83.49 79.83 83.25C79.34 83 78.99 82.7 78.77 82.37Q78.6 82.1 78.52 81.81Q78.44 81.53 78.44 81.23Q78.44 80.53 78.76 80.03Q78.97 79.71 79.31 79.48C79.89 79.07 80.65 78.87 81.6 78.87C82.14 78.88 82.61 78.96 82.99 79.1C83.38 79.25 83.7 79.44 83.97 79.7Q84.38 80.06 84.65 80.47C84.75 80.64 84.89 80.76 85.07 80.82Q85.22 80.86 85.36 80.85Q85.5 80.84 85.63 80.78C85.79 80.68 85.9 80.54 85.93 80.36C85.98 80.18 85.94 80 85.82 79.81C85.57 79.4 85.24 79.02 84.83 78.69C84.43 78.34 83.97 78.06 83.42 77.86C82.88 77.64 82.28 77.53 81.62 77.53C80.73 77.53 79.94 77.68 79.26 77.98C78.57 78.27 78.03 78.69 77.63 79.23C77.25 79.77 77.06 80.41 77.06 81.14C77.06 82.16 77.45 83.03 78.25 83.74C79.04 84.44 80.14 84.87 81.55 85.04C82.7 85.18 83.55 85.52 84.09 86.05C84.63 86.58 84.9 87.21 84.9 87.94C84.9 88.52 84.76 89.01 84.47 89.42Q84.41 89.51 84.34 89.59Q83.95 90.06 83.32 90.34C82.82 90.55 82.26 90.65 81.62 90.65C81.04 90.65 80.51 90.58 80.03 90.43C79.55 90.28 79.14 90.06 78.79 89.78C78.44 89.51 78.17 89.19 77.99 88.84C77.91 88.68 77.78 88.55 77.61 88.47C77.46 88.38 77.3 88.36 77.13 88.41C76.91 88.47 76.75 88.59 76.66 88.75C76.57 88.91 76.58 89.08 76.68 89.28C76.93 89.82 77.3 90.29 77.78 90.7Q78.5 91.32 79.47 91.66ZM2.02 91.62C2.17 91.74 2.36 91.8 2.59 91.8L7.19 91.8Q8.46 91.8 9.43 91.28Q10.05 90.94 10.5 90.45Q10.77 90.15 10.98 89.8Q11.04 89.7 11.09 89.6Q11.54 88.73 11.54 87.64C11.54 86.72 11.3 85.97 10.8 85.38Q10.57 85.1 10.29 84.87Q9.68 84.38 8.85 84.15C9.42 83.89 9.88 83.5 10.22 83C10.57 82.49 10.75 81.92 10.75 81.27Q10.75 80.45 10.43 79.78Q10.34 79.6 10.22 79.43Q10.07 79.18 9.88 78.97Q9.45 78.49 8.84 78.18Q8.73 78.12 8.62 78.07Q7.84 77.71 6.89 77.71L2.5 77.71Q2.3 77.71 2.15 77.8Q2.07 77.84 2 77.91C1.87 78.04 1.8 78.21 1.8 78.42L1.8 91.1C1.8 91.32 1.87 91.49 2.02 91.62ZM44.85 87.08L44.85 91.12C44.85 91.32 44.78 91.49 44.65 91.62C44.53 91.74 44.37 91.8 44.16 91.8C43.95 91.8 43.77 91.74 43.64 91.62C43.52 91.49 43.46 91.32 43.46 91.12L43.46 78.42C43.46 78.2 43.52 78.03 43.64 77.91C43.77 77.78 43.95 77.71 44.16 77.71C44.37 77.71 44.53 77.78 44.65 77.91C44.78 78.03 44.85 78.2 44.85 78.42L44.85 83.25Q44.96 83.12 45.09 83.01Q45.49 82.62 46 82.35C46.64 82 47.35 81.83 48.13 81.83C48.99 81.83 49.75 82.01 50.42 82.37C51.1 82.72 51.63 83.23 52.01 83.92C52.41 84.6 52.61 85.44 52.61 86.43L52.61 91.12C52.61 91.31 52.54 91.47 52.41 91.6C52.28 91.74 52.11 91.8 51.92 91.8C51.72 91.8 51.55 91.74 51.42 91.6C51.28 91.47 51.22 91.31 51.22 91.12L51.22 86.43C51.22 85.68 51.07 85.07 50.79 84.59C50.51 84.11 50.12 83.74 49.63 83.5Q48.91 83.14 47.99 83.14C47.4 83.14 46.86 83.26 46.38 83.49C45.91 83.71 45.54 84.03 45.26 84.42Q45.11 84.65 45.01 84.9Q44.85 85.31 44.85 85.78L44.85 87.08ZM114.9 91.41C115.28 91.67 115.72 91.8 116.2 91.8L116.43 91.8C116.67 91.8 116.86 91.74 117.01 91.62C117.17 91.49 117.24 91.32 117.24 91.12C117.24 90.91 117.19 90.75 117.08 90.63C116.97 90.5 116.83 90.43 116.65 90.43L116.2 90.43C115.87 90.43 115.6 90.27 115.38 89.94C115.18 89.62 115.08 89.2 115.08 88.68L115.08 78.4C115.08 78.19 115.01 78.03 114.88 77.91C114.76 77.78 114.6 77.71 114.39 77.71C114.19 77.71 114.02 77.78 113.89 77.91C113.77 78.03 113.71 78.19 113.71 78.4L113.71 88.68C113.71 89.3 113.81 89.84 114.01 90.31C114.23 90.77 114.52 91.14 114.9 91.41ZM24.52 79.77C24.71 79.96 24.94 80.06 25.21 80.06C25.48 80.06 25.72 79.96 25.91 79.77C26.1 79.58 26.2 79.34 26.2 79.07C26.2 78.76 26.1 78.53 25.89 78.36C25.7 78.18 25.48 78.09 25.22 78.09C24.96 78.09 24.72 78.18 24.52 78.36C24.33 78.53 24.23 78.76 24.23 79.07C24.23 79.34 24.33 79.58 24.52 79.77ZM108.24 79.77C108.43 79.96 108.66 80.06 108.92 80.06C109.2 80.06 109.44 79.96 109.63 79.77C109.82 79.58 109.92 79.34 109.92 79.07C109.92 78.76 109.81 78.53 109.61 78.36Q109.44 78.2 109.25 78.14Q109.1 78.09 108.94 78.09C108.68 78.09 108.44 78.18 108.24 78.36C108.05 78.53 107.95 78.76 107.95 79.07C107.95 79.34 108.05 79.58 108.24 79.77ZM58.72 91.35C59.22 91.65 59.8 91.8 60.43 91.8L60.81 91.8Q61.07 91.8 61.26 91.69Q61.31 91.66 61.35 91.62C61.5 91.49 61.57 91.32 61.57 91.12C61.57 90.91 61.51 90.74 61.39 90.61C61.27 90.48 61.11 90.41 60.92 90.41L60.43 90.41Q59.92 90.41 59.52 90.2Q59.26 90.06 59.04 89.84C58.68 89.44 58.5 88.93 58.5 88.32L58.5 83.5L60.54 83.5C60.72 83.5 60.87 83.45 60.99 83.34C61.11 83.22 61.17 83.08 61.17 82.91C61.17 82.73 61.11 82.58 60.99 82.48C60.87 82.36 60.72 82.29 60.54 82.29L58.5 82.29L58.5 79.5C58.5 79.29 58.44 79.13 58.3 78.99C58.17 78.86 58 78.79 57.8 78.79C57.6 78.79 57.43 78.86 57.29 78.99C57.17 79.13 57.11 79.29 57.11 79.5L57.11 82.29L55.94 82.29C55.76 82.29 55.61 82.36 55.49 82.48C55.37 82.58 55.31 82.73 55.31 82.91C55.31 83.08 55.37 83.22 55.49 83.34C55.61 83.45 55.76 83.5 55.94 83.5L57.11 83.5L57.11 88.32C57.11 88.99 57.26 89.6 57.55 90.13C57.84 90.64 58.23 91.05 58.72 91.35ZM6.89 83.59L3.21 83.59L3.21 79.07L6.89 79.07C7.61 79.07 8.2 79.25 8.67 79.62C9.14 80 9.38 80.54 9.38 81.27Q9.38 82.07 9 82.62Q8.86 82.82 8.67 82.98Q8.52 83.11 8.36 83.21Q7.74 83.59 6.89 83.59ZM16.44 85.72L16.44 91.12C16.44 91.33 16.38 91.5 16.26 91.62C16.14 91.74 15.97 91.8 15.75 91.8C15.53 91.8 15.37 91.74 15.25 91.62C15.13 91.5 15.07 91.33 15.07 91.12L15.07 82.62C15.07 82.4 15.13 82.23 15.25 82.11C15.37 81.99 15.53 81.93 15.75 81.93C15.97 81.93 16.14 81.99 16.26 82.11C16.38 82.23 16.44 82.4 16.44 82.62L16.44 83.4C16.76 82.96 17.15 82.6 17.61 82.33Q17.91 82.16 18.23 82.04Q18.84 81.83 19.52 81.83C20.08 81.83 20.5 81.9 20.8 82.06C21.1 82.22 21.22 82.45 21.15 82.75C21.1 82.93 21.01 83.05 20.89 83.11C20.79 83.17 20.65 83.19 20.48 83.18C20.32 83.17 20.14 83.15 19.94 83.14C19.26 83.08 18.66 83.15 18.13 83.36C17.62 83.55 17.2 83.85 16.89 84.26Q16.78 84.4 16.7 84.56Q16.44 85.07 16.44 85.72ZM96.49 91.62C96.62 91.74 96.79 91.8 96.99 91.8Q97.24 91.8 97.4 91.69Q97.44 91.66 97.48 91.62C97.61 91.49 97.68 91.32 97.68 91.12L97.68 85.92Q97.68 85.9 97.68 85.89L97.68 85.87L97.68 85.86C97.67 85.04 97.9 84.39 98.37 83.9C98.85 83.4 99.46 83.14 100.21 83.14C100.9 83.14 101.47 83.4 101.92 83.9C102.36 84.39 102.59 85.07 102.59 85.92L102.59 91.12C102.59 91.32 102.65 91.49 102.79 91.62C102.92 91.74 103.09 91.8 103.29 91.8C103.5 91.8 103.66 91.74 103.78 91.62C103.91 91.49 103.98 91.32 103.98 91.12L103.98 85.92Q103.98 84.68 103.51 83.76C103.21 83.14 102.78 82.67 102.23 82.33C101.69 81.99 101.06 81.83 100.35 81.83C99.6 81.83 98.94 81.99 98.35 82.33C97.83 82.63 97.41 83.03 97.09 83.53C96.8 83.03 96.41 82.63 95.93 82.33C95.39 81.99 94.76 81.83 94.05 81.83C93.36 81.83 92.73 81.99 92.18 82.33C91.86 82.52 91.59 82.75 91.35 83.03L91.35 82.64C91.35 82.43 91.28 82.26 91.15 82.13C91.03 82 90.87 81.93 90.66 81.93C90.44 81.93 90.27 82 90.14 82.13C90.02 82.26 89.96 82.43 89.96 82.64L89.96 91.12C89.96 91.32 90.02 91.49 90.14 91.62C90.27 91.74 90.44 91.8 90.66 91.8Q90.91 91.8 91.07 91.69Q91.11 91.66 91.15 91.62C91.28 91.49 91.35 91.32 91.35 91.12L91.35 85.78C91.35 85 91.59 84.36 92.07 83.88Q92.34 83.61 92.66 83.44Q93.2 83.14 93.91 83.14Q94.49 83.14 94.95 83.37Q95.32 83.56 95.62 83.9C96.07 84.39 96.29 85.07 96.29 85.92L96.29 91.12C96.29 91.32 96.36 91.49 96.49 91.62ZM32.17 91.26C32.9 91.68 33.75 91.89 34.7 91.89Q35.8 91.89 36.69 91.45Q36.81 91.39 36.93 91.32C37.6 90.92 38.11 90.38 38.49 89.69L38.49 90.5C38.49 91.3 38.32 91.99 38 92.58C37.69 93.17 37.26 93.63 36.72 93.95C36.18 94.27 35.57 94.44 34.9 94.44C34.17 94.44 33.54 94.3 32.98 94.04C32.44 93.78 32 93.43 31.65 92.99C31.54 92.85 31.39 92.76 31.2 92.72C31 92.69 30.83 92.72 30.67 92.83C30.52 92.94 30.43 93.08 30.4 93.25C30.39 93.41 30.45 93.57 30.58 93.72C31.05 94.33 31.65 94.81 32.37 95.16C33.09 95.52 33.93 95.7 34.88 95.7C35.84 95.7 36.69 95.47 37.44 95.01C38.18 94.57 38.77 93.96 39.21 93.17Q39.29 93.02 39.37 92.87Q39.86 91.83 39.86 90.56L39.86 86.88C39.84 85.89 39.62 85.02 39.19 84.26C38.77 83.5 38.18 82.91 37.42 82.49C36.68 82.06 35.82 81.84 34.84 81.84Q33.6 81.84 32.59 82.32Q32.42 82.4 32.26 82.49Q31.72 82.79 31.29 83.21Q30.81 83.67 30.47 84.26C30.04 85.02 29.83 85.89 29.83 86.88Q29.83 88.32 30.42 89.44Q30.43 89.46 30.44 89.48C30.86 90.23 31.44 90.83 32.17 91.26ZM121.39 91.26C122.15 91.68 123.02 91.89 123.99 91.89Q124.84 91.89 125.76 91.57C126.37 91.34 126.88 91.06 127.27 90.72Q127.41 90.61 127.45 90.47Q127.48 90.38 127.47 90.29C127.47 90.12 127.39 89.96 127.24 89.82C127.12 89.72 126.97 89.68 126.8 89.69C126.64 89.69 126.49 89.75 126.35 89.85C126.09 90.08 125.73 90.28 125.29 90.43C124.86 90.58 124.42 90.65 123.99 90.65Q123.01 90.65 122.23 90.25Q122.15 90.21 122.08 90.16C121.52 89.84 121.09 89.39 120.76 88.83Q120.75 88.81 120.74 88.79Q120.39 88.13 120.31 87.33L127.6 87.33C127.79 87.33 127.95 87.27 128.07 87.17C128.19 87.05 128.25 86.89 128.25 86.7C128.25 85.76 128.06 84.92 127.69 84.19C127.32 83.46 126.79 82.88 126.1 82.48Q126.04 82.43 125.97 82.4Q125 81.84 123.72 81.84Q122.53 81.84 121.58 82.32Q121.42 82.4 121.27 82.49C120.56 82.93 120 83.52 119.59 84.28C119.19 85.03 118.99 85.89 118.99 86.88Q118.99 88.25 119.55 89.34Q119.59 89.41 119.62 89.48Q119.98 90.09 120.47 90.57Q120.88 90.97 121.39 91.26ZM120.34 86.17C120.4 85.72 120.52 85.31 120.71 84.93C121 84.35 121.4 83.9 121.92 83.58C122.43 83.25 123.03 83.09 123.72 83.09C124.39 83.09 124.97 83.25 125.45 83.56C125.94 83.87 126.32 84.3 126.59 84.86C126.78 85.26 126.9 85.7 126.95 86.17L120.34 86.17ZM24.7 91.62C24.83 91.74 25.01 91.8 25.22 91.8C25.43 91.8 25.59 91.74 25.71 91.62C25.84 91.49 25.91 91.32 25.91 91.1L25.91 82.64C25.91 82.42 25.84 82.25 25.71 82.13C25.59 82 25.43 81.93 25.22 81.93C25.01 81.93 24.83 82 24.7 82.13C24.58 82.25 24.52 82.42 24.52 82.64L24.52 91.1C24.52 91.32 24.58 91.49 24.7 91.62ZM108.42 91.62C108.55 91.74 108.73 91.8 108.94 91.8C109.15 91.8 109.31 91.74 109.43 91.62C109.56 91.49 109.63 91.32 109.63 91.1L109.63 82.64C109.63 82.42 109.56 82.25 109.43 82.13C109.31 82 109.15 81.93 108.94 81.93C108.73 81.93 108.55 82 108.42 82.13C108.3 82.25 108.24 82.42 108.24 82.64L108.24 91.1C108.24 91.32 108.3 91.49 108.42 91.62ZM36.63 90.21Q35.85 90.63 34.84 90.63C34.13 90.63 33.5 90.47 32.95 90.16C32.39 89.84 31.96 89.39 31.65 88.83C31.33 88.26 31.18 87.61 31.18 86.88C31.18 86.14 31.33 85.49 31.65 84.93C31.96 84.35 32.39 83.91 32.95 83.59C33.5 83.27 34.13 83.11 34.84 83.11Q35.79 83.11 36.54 83.5Q36.63 83.54 36.72 83.59C37.27 83.91 37.7 84.35 38.02 84.93C38.33 85.49 38.49 86.14 38.49 86.88C38.49 87.61 38.33 88.26 38.02 88.83C37.7 89.39 37.27 89.84 36.72 90.16Q36.67 90.19 36.63 90.21ZM7.19 90.45L3.21 90.45L3.21 84.95L7.19 84.95Q8.06 84.95 8.73 85.29C9.17 85.51 9.52 85.82 9.77 86.23C10.03 86.62 10.15 87.09 10.15 87.64Q10.15 88.5 9.77 89.13C9.52 89.55 9.17 89.88 8.73 90.11C8.28 90.34 7.77 90.45 7.19 90.45Z" fill="#FFFFFF" fill-opacity="1.000000" fill-rule="evenodd"/>
	<path id="Clinic" d="M79.33 112.14C79.26 112.06 79.17 112.02 79.07 112.02C79.01 112.02 78.96 112.04 78.91 112.06C78.86 112.09 78.82 112.12 78.77 112.16C78.62 112.29 78.47 112.41 78.32 112.5C78.17 112.59 78.01 112.67 77.84 112.73C77.67 112.79 77.49 112.83 77.28 112.86C77.08 112.88 76.86 112.9 76.61 112.9Q76.08 112.9 75.61 112.73Q75.53 112.7 75.45 112.67C75.09 112.51 74.77 112.28 74.51 111.99C74.24 111.7 74.03 111.34 73.87 110.91C73.72 110.48 73.64 109.99 73.64 109.44Q73.64 108.62 73.86 107.98C74 107.56 74.21 107.2 74.47 106.9C74.73 106.6 75.04 106.38 75.4 106.23C75.77 106.07 76.17 105.99 76.61 105.99Q76.99 105.99 77.28 106.05C77.48 106.09 77.65 106.13 77.8 106.19C77.95 106.25 78.08 106.31 78.2 106.37C78.31 106.44 78.41 106.51 78.49 106.56C78.58 106.62 78.66 106.67 78.73 106.71C78.8 106.74 78.87 106.76 78.94 106.76C79.04 106.76 79.12 106.74 79.17 106.7C79.23 106.66 79.28 106.61 79.31 106.56L79.92 105.71C79.53 105.33 79.06 105.03 78.51 104.79Q77.68 104.44 76.61 104.44Q75.54 104.44 74.65 104.81C74.06 105.06 73.55 105.4 73.12 105.84C72.7 106.28 72.37 106.81 72.13 107.42Q71.78 108.34 71.78 109.44Q71.78 110.53 72.11 111.45Q72.43 112.34 73.02 112.99Q73.03 113.01 73.05 113.03C73.46 113.47 73.96 113.82 74.54 114.07C75.12 114.32 75.77 114.44 76.5 114.44Q77.72 114.44 78.58 114.05C79.16 113.79 79.65 113.41 80.05 112.92L79.33 112.14ZM126.62 112.14C126.55 112.06 126.46 112.02 126.36 112.02C126.31 112.02 126.25 112.04 126.2 112.06C126.15 112.09 126.11 112.12 126.06 112.16C125.91 112.29 125.76 112.41 125.61 112.5C125.46 112.59 125.3 112.67 125.13 112.73C124.96 112.79 124.78 112.83 124.57 112.86C124.38 112.88 124.15 112.9 123.9 112.9C123.49 112.9 123.1 112.82 122.74 112.67C122.38 112.51 122.07 112.28 121.8 111.99C121.53 111.7 121.32 111.34 121.16 110.91C121.01 110.48 120.93 109.99 120.93 109.44C120.93 108.89 121.01 108.41 121.15 107.98Q121.37 107.34 121.76 106.9C122.02 106.6 122.33 106.38 122.69 106.23C123.06 106.07 123.46 105.99 123.9 105.99Q124.28 105.99 124.57 106.05C124.77 106.09 124.95 106.13 125.1 106.19C125.24 106.25 125.37 106.31 125.49 106.37C125.6 106.44 125.7 106.51 125.79 106.56Q125.91 106.65 126.02 106.71C126.09 106.74 126.16 106.76 126.23 106.76Q126.38 106.76 126.46 106.7C126.52 106.66 126.57 106.61 126.6 106.56L127.21 105.71C126.82 105.33 126.35 105.03 125.8 104.79C125.25 104.56 124.62 104.44 123.9 104.44C123.19 104.44 122.53 104.56 121.94 104.81C121.35 105.06 120.84 105.4 120.41 105.84C119.99 106.28 119.66 106.81 119.43 107.42C119.19 108.03 119.07 108.7 119.07 109.44C119.07 110.17 119.18 110.84 119.4 111.45C119.62 112.06 119.94 112.59 120.35 113.03C120.76 113.47 121.25 113.82 121.83 114.07C122.41 114.32 123.06 114.44 123.79 114.44C124.6 114.44 125.3 114.31 125.87 114.05C126.45 113.79 126.94 113.41 127.34 112.92L126.62 112.14ZM89.6 114.33L89.6 112.83L85.69 112.83L85.69 104.55L83.87 104.55L83.87 114.33L89.6 114.33ZM93.47 114.33L95.29 114.33L95.29 104.55L93.47 104.55L93.47 114.33ZM108.3 114.33L108.3 104.55L106.7 104.55L106.7 110.49C106.7 110.63 106.71 110.77 106.71 110.92Q106.73 111.15 106.75 111.39L101.62 104.84C101.57 104.78 101.52 104.73 101.48 104.69C101.44 104.65 101.4 104.62 101.36 104.6C101.32 104.58 101.27 104.57 101.21 104.56C101.15 104.55 101.09 104.55 101.01 104.55L100.06 104.55L100.06 114.33L101.66 114.33L101.66 108.32Q101.66 107.94 101.62 107.5L106.73 114.02C106.82 114.13 106.91 114.21 107.01 114.26C107.1 114.31 107.23 114.33 107.37 114.33L108.3 114.33ZM113.05 114.33L114.88 114.33L114.88 104.55L113.05 104.55L113.05 114.33Z" fill="#FFFFFF" fill-opacity="1.000000" fill-rule="evenodd"/>
	<rect id="Rectangle 19" x="2.157227" y="111.884460" width="60.399849" height="1.078569" fill="#FFFFFF" fill-opacity="1.000000"/>
	<path id="&lt;Path&gt;" d="M73.91 2.97C73.83 2.99 73.75 3.01 73.67 3.03C67.67 4.85 61.92 5.03 56.23 2.08C50.57 -0.81 42.11 -1.37 38.38 4.82C37.03 7.06 36.48 9.71 36.17 12.32C35.06 21.46 36.23 31.79 38.29 40.74C39.71 46.74 42.48 54.68 48.07 58.03C49.46 58.86 51.24 59.35 52.69 58.65C53.7 58.12 54.35 57.11 54.81 56.06C56.44 52.28 58.01 38.47 64.9 41.51C66.53 42.22 67.64 43.79 68.22 45.45C69.42 49.02 68.9 52.93 70.59 56.37C71.11 57.42 71.82 58.49 72.93 58.89C73.76 59.2 74.68 59.05 75.51 58.77C79.2 57.45 82.09 53.32 83.79 49.97C89.57 38.47 91.66 25.12 89.75 12.38C89.14 8.29 87.6 4.23 83.54 2.51C80.53 1.22 77.05 2.02 73.91 2.97Z" fill="#F9FFF9" fill-opacity="1.000000" fill-rule="nonzero"/>
	<path id="&lt;Path&gt;" d="M50.6 50.46C50.41 51.2 49.46 51.45 49 50.83C47.03 48.4 45.34 44.44 44.17 39.39C41.95 29.89 41.25 20.54 42.14 13.06C42.35 11.43 42.69 9.37 43.55 7.92C43.83 7.46 44.69 6.02 47.83 6.02C49.64 6.02 51.7 6.54 53.43 7.43C57.21 9.4 61.3 10.38 65.55 10.38C68.68 10.38 71.91 9.89 75.42 8.82L75.63 8.75C77.05 8.32 78.68 7.86 80 7.86C80.49 7.86 80.89 7.92 81.2 8.08C81.66 8.26 83.14 8.88 83.79 13.28C85.63 25.52 83.45 38.53 77.3 49.3C77.05 49.73 76.8 50.16 76.37 50.4C74.5 51.57 74.62 48.53 74.56 47.6C74.52 46.91 74.42 46.21 74.28 45.51C74.04 44.16 73.64 42.84 73.02 41.57C71.82 39.11 69.85 37.08 67.33 35.98C65.91 35.36 64.47 35.05 63.02 35.05C54.38 35.05 52.2 44.53 50.6 50.46Z" fill="#F0F5F0" fill-opacity="1.000000" fill-rule="nonzero"/>
	<path id="&lt;Path&gt;" d="M101.9 17.77C101.17 16.38 99.6 15.28 97.72 14.81C95.26 14.23 92.71 14.51 90.09 14.91C90.15 15.56 90.2 16.23 90.25 16.91C92.74 16.54 95.11 16.26 97.23 16.78C98.55 17.09 99.66 17.83 100.12 18.72C100.4 19.21 100.43 19.7 100.24 20.23C99.97 21.06 99.2 21.89 97.97 22.69C95.6 24.29 92.95 25.49 90.25 26.53C88.8 27.12 87.32 27.64 85.85 28.13C79.17 30.41 71.67 32.07 62.96 33.21C55.12 34.25 46.23 35.39 37.49 34.78C37.37 34.76 37.24 34.75 37.09 34.75C35.43 34.59 33.59 34.38 31.96 33.76C30.2 33.12 28.88 32.1 28.33 30.93C27.96 30.16 27.93 29.46 28.23 28.75C28.76 27.52 30.54 25.7 35.83 23.73C35.81 23.04 35.79 22.34 35.77 21.64C30.48 23.49 27.4 25.55 26.39 27.95C25.87 29.21 25.9 30.5 26.51 31.82C27.31 33.45 28.97 34.81 31.25 35.67C33.28 36.41 35.46 36.65 37.37 36.78C37.39 36.78 37.42 36.78 37.46 36.78C39.21 36.9 40.94 36.96 42.66 36.96C49.8 36.96 56.87 36.04 63.24 35.21C72.07 34.07 79.7 32.38 86.52 30.04C87.66 29.64 88.86 29.21 90.03 28.78C93.17 27.61 96.31 26.23 99.07 24.38C100.7 23.3 101.69 22.17 102.15 20.9C102.52 19.86 102.43 18.75 101.9 17.77Z" fill="#4378FB" fill-opacity="1.000000" fill-rule="nonzero"/>
	<path id="&lt;Path&gt;" d="M101.84 12.08C101.1 10.69 99.54 9.58 97.66 9.12C95.07 8.51 91.88 8.88 89.08 9.31L89.57 11.28C92.15 10.88 94.95 10.54 97.2 11.09C98.49 11.4 99.6 12.14 100.09 13.03C100.34 13.52 100.4 14.01 100.21 14.54C99.9 15.37 99.14 16.2 97.9 17.03C95.6 18.57 93.01 19.77 90.37 20.78C88.86 21.4 87.32 21.92 85.82 22.44C79.11 24.72 71.61 26.38 62.93 27.52C55.06 28.56 46.17 29.7 37.46 29.09C37.05 29.05 36.63 29 36.2 28.96C34.79 28.84 33.28 28.59 31.89 28.07C30.14 27.43 28.82 26.41 28.27 25.24C27.93 24.47 27.9 23.76 28.17 23.06C28.7 21.83 30.48 20.01 35.71 18.07C35.73 17.36 35.76 16.64 35.8 15.92C30.45 17.77 27.37 19.86 26.33 22.26C25.8 23.52 25.83 24.81 26.45 26.13C27.25 27.76 28.94 29.12 31.19 29.98C32.94 30.59 34.79 30.87 36.48 31.02C36.76 31.04 37.04 31.07 37.31 31.09C39.07 31.21 40.84 31.27 42.6 31.27C49.77 31.27 56.81 30.35 63.18 29.52C72.01 28.38 79.63 26.69 86.46 24.35C87.75 23.89 89.05 23.43 90.37 22.93C93.38 21.8 96.37 20.47 99.01 18.69C100.64 17.61 101.66 16.47 102.09 15.21C102.46 14.17 102.4 13.06 101.84 12.08Z" fill="#00ADEF" fill-opacity="1.000000" fill-rule="nonzero"/>
	<path id="&lt;Path&gt;" d="M97.69 11.8L101.41 12.51L97.51 13.18L96.92 17L96.15 13.25L92.43 12.51L96.09 11.61L96.92 8.02L97.69 11.8Z" fill="#F9FFF9" fill-opacity="1.000000" fill-rule="nonzero"/>
	<path id="&lt;Path&gt;" d="M101.38 18.5L104 19.03L101.26 19.49L100.86 22.17L100.3 19.52L97.69 19L100.27 18.38L100.86 15.86L101.38 18.5Z" fill="#F9FFF9" fill-opacity="1.000000" fill-rule="nonzero"/>
</svg>
