<svg width="18" height="13.357" fill="none" xmlns="http://www.w3.org/2000/svg"><path d="M1.72 4.11c.23.15.92.6 2.06 1.35 1.15.75 2.02 1.33 2.63 1.74.07.04.21.14.43.28.22.15.4.27.54.37.15.09.32.19.53.3.2.12.39.2.57.26.18.06.35.08.5.08h.03c.15 0 .32-.02.5-.08s.37-.14.58-.26c.2-.11.37-.21.52-.3.14-.1.32-.22.54-.37.22-.14.36-.24.43-.28.61-.41 2.18-1.44 4.7-3.09.49-.32.89-.71 1.22-1.16.33-.46.5-.94.5-1.44 0-.41-.16-.77-.48-1.07-.32-.3-.7-.44-1.13-.44H1.6C1.09 0 .69.16.41.49.13.82 0 1.23 0 1.72c0 .4.18.83.55 1.3.37.46.76.83 1.17 1.09Z" fill="#FFF"/><path d="M16.99 5.13c-2.2 1.4-3.86 2.49-5 3.27-.38.27-.69.47-.93.62-.24.15-.55.3-.95.46-.4.15-.76.23-1.1.23h-.03c-.34 0-.7-.08-1.1-.23-.4-.16-.71-.31-.95-.46-.24-.15-.55-.35-.93-.62-.9-.63-2.57-1.72-4.99-3.27C.63 4.89.29 4.61 0 4.3v7.53c0 .42.15.78.47 1.08.31.29.69.44 1.13.44h14.79c.44 0 .82-.15 1.13-.44.32-.3.48-.66.48-1.08V4.3c-.29.31-.63.58-1.01.83Z" fill="#FFF"/></svg>