<svg width="18" height="18" fill="none" xmlns="http://www.w3.org/2000/svg"><defs><clipPath id="a"><rect rx="-.5" width="17" height="17" transform="translate(.5 .5)" fill="#fff" fill-opacity="0"/></clipPath></defs><rect rx="-.5" width="17" height="17" transform="translate(.5 .5)" fill="none"/><g clip-path="url(#a)" fill="#FFF"><path d="M16.96 17.06h-4.64L12 16.6l-4.03-5.86-.6-.87-5.02-7.3L1.21.93h4.65l.31.45 3.78 5.49.6.87 5.28 7.67 1.13 1.65Zm-2-1.05L9.84 8.56l-.6-.87L5.3 1.97H3.21l4.87 7.08.59.86 4.2 6.1h2.09Z" fill-rule="evenodd"/><path d="m8.08 9.05.59.86-.7.83-5.44 6.32H1.19l6.18-7.19.71-.82ZM16.4.93l-5.85 6.81-.71.82-.6-.87.71-.82 3.96-4.62L15.06.93h1.34Z"/></g></svg>