<svg width="18.344" height="18.344" viewBox="0 0 18.345 18.344" fill="none" xmlns="http://www.w3.org/2000/svg"><path d="M9.17 0h-.01C4.11 0 0 4.11 0 9.17c0 2 .64 3.86 1.74 5.37L.6 17.95l3.52-1.13c1.45.96 3.18 1.52 5.05 1.52 5.06 0 9.17-4.12 9.17-9.17C18.34 4.11 14.23 0 9.17 0Zm5.34 12.95c-.22.62-1.1 1.14-1.8 1.29-.48.1-1.11.19-3.22-.69C6.8 12.43 5.06 9.7 4.93 9.52c-.13-.18-1.09-1.45-1.09-2.77 0-1.31.67-1.96.94-2.23.22-.23.58-.33.93-.33.12 0 .22.01.31.01.27.01.41.03.58.45.22.54.76 1.85.83 1.99.06.13.13.32.04.49-.09.19-.16.27-.3.43-.14.15-.26.27-.4.44-.12.14-.26.3-.11.57.16.26.7 1.14 1.49 1.85 1.03.91 1.86 1.2 2.15 1.32.22.1.49.07.65-.1.2-.22.46-.59.72-.95.18-.26.41-.29.65-.2.25.09 1.56.74 1.83.87.27.14.45.2.51.31.07.12.07.65-.15 1.28Z" fill="#000"/></svg>